# xmcd CD database file
#
# Track frame offsets:
#	150
#	11400
#	27262
#	39625
#	57800
#	67675
#	85012
#	111375
#	127537
#	141937
#	173575
#	191812
#	203675
#	221050
#	246862
#	263025
#	276237
#	290950
#	309537
#	326050
#
# Disc length: 4505 seconds
#
# Revision: 2
# Processed by: cddbd v1.4PL0 Copyright (c) Steve Scherf et al.
# Submitted via: CDex 1.40Beta8
#
DISCID=24119714
DTITLE=Celibate Rifles - Sofa
DYEAR=1993
DGENRE=Post Punk
TTITLE0=Killing Time
TTITLE1=Wild Desire
TTITLE2=Sometimes
TTITLE3=Bill Bonney Regrets
TTITLE4=Jesus On T.V.
TTITLE5=Johnny
TTITLE6=Electravision Mantra
TTITLE7=Wonderful Life
TTITLE8=More Things Change
TTITLE9=Ocean Shore
TTITLE10=New Mistakes
TTITLE11=Back In The Red
TTITLE12=Ice Blue
TTITLE13=This Week
TTITLE14=Netherworld
TTITLE15=Glasshouse
TTITLE16=Frank Hyde (Slight Return)
TTITLE17=Darlinghurst Confidential
TTITLE18=Pretty Pictures
TTITLE19=Gonna Cry
EXTD=YEAR: 1993 ID3G: 121
EXTT0=
EXTT1=
EXTT2=
EXTT3=
EXTT4=
EXTT5=
EXTT6=
EXTT7=
EXTT8=
EXTT9=
EXTT10=
EXTT11=
EXTT12=
EXTT13=
EXTT14=
EXTT15=
EXTT16=
EXTT17=
EXTT18=
EXTT19=
PLAYORDER=
